<svg width="20" height="20" viewBox="0 0 20 20" fill="none" xmlns="http://www.w3.org/2000/svg">
<path d="M9.99975 0C5.94011 0 2.63696 3.30314 2.63696 7.3632C2.63696 8.42222 2.85372 9.43334 3.28089 10.3687C5.12179 14.3971 8.65131 18.6501 9.68945 19.8575C9.76723 19.9478 9.88062 19.9998 9.99995 19.9998C10.1193 19.9998 10.2327 19.9478 10.3105 19.8575C11.3482 18.6503 14.8777 14.3975 16.7192 10.3687C17.1466 9.43334 17.3631 8.42222 17.3631 7.3632C17.3627 3.30314 14.0596 0 9.99975 0ZM9.99975 11.1877C7.89092 11.1877 6.17508 9.47182 6.17508 7.36299C6.17508 5.25396 7.89092 3.53812 9.99975 3.53812C12.1086 3.53812 13.8244 5.25396 13.8244 7.36299C13.8246 9.47182 12.1088 11.1877 9.99975 11.1877Z" fill="#B6A188"/>
</svg>
