<svg width="26" height="26" viewBox="0 0 26 26" fill="none" xmlns="http://www.w3.org/2000/svg">
<g clip-path="url(#clip0)">
<path d="M13 1.3424C16.4711 1.3424 16.8824 1.35559 18.2531 1.41813C19.5205 1.47608 20.2088 1.68768 20.667 1.86571C21.2738 2.10149 21.7068 2.38322 22.1618 2.8382C22.6168 3.29317 22.8985 3.72616 23.1343 4.333C23.3123 4.79117 23.5241 5.47952 23.5819 6.74693C23.6444 8.11784 23.6576 8.52886 23.6576 12C23.6576 15.4711 23.6444 15.8824 23.5819 17.2531C23.5241 18.5205 23.3123 19.2088 23.1343 19.667C22.8985 20.2738 22.6168 20.7068 22.1618 21.1618C21.7068 21.6168 21.2738 21.8985 20.667 22.1343C20.2088 22.3123 19.5205 22.5241 18.2531 22.5819C16.8824 22.6444 16.4713 22.6576 13 22.6576C9.52866 22.6576 9.11744 22.6444 7.74693 22.5819C6.47952 22.5241 5.79117 22.3123 5.333 22.1343C4.72616 21.8985 4.29317 21.6168 3.8382 21.1618C3.38322 20.7068 3.10149 20.2738 2.86571 19.667C2.68768 19.2088 2.47588 18.5205 2.41813 17.2531C2.35559 15.8822 2.3424 15.4711 2.3424 12C2.3424 8.52886 2.35559 8.11764 2.41813 6.74693C2.47588 5.47952 2.68768 4.79117 2.86571 4.333C3.10149 3.72616 3.38322 3.29317 3.8382 2.8382C4.29317 2.38322 4.72616 2.10149 5.333 1.86571C5.79117 1.68768 6.47952 1.47588 7.74693 1.41813C9.11764 1.35559 9.52886 1.3424 13 1.3424ZM13 -1C9.46931 -1 9.02673 -0.985014 7.64003 -0.921873C6.25633 -0.858733 5.31122 -0.638939 4.48439 -0.31764C3.62959 0.0146478 2.90447 0.459031 2.18175 1.18175C1.45903 1.90447 1.01445 2.62939 0.68236 3.48439C0.361061 4.31142 0.141267 5.25633 0.0781267 6.64003C0.0149859 8.02673 0 8.46931 0 12C0 15.5307 0.0149859 15.9733 0.0781267 17.36C0.141267 18.7437 0.361061 19.6888 0.68236 20.5156C1.01465 21.3704 1.45903 22.0955 2.18175 22.8182C2.90447 23.541 3.62939 23.9856 4.48439 24.3176C5.31142 24.6389 6.25633 24.8587 7.64003 24.9219C9.02653 24.9852 9.46931 25 12.9998 25C16.5303 25 16.9731 24.985 18.3598 24.9219C19.7435 24.8587 20.6884 24.6389 21.5154 24.3176C22.3702 23.9854 23.0953 23.541 23.818 22.8182C24.5408 22.0955 24.9854 21.3706 25.3174 20.5156C25.6387 19.6888 25.8585 18.7437 25.9217 17.36C25.985 15.9735 25.9998 15.5307 25.9998 12C25.9998 8.46931 25.9848 8.02673 25.9217 6.64023C25.8585 5.25653 25.6387 4.31162 25.3174 3.48459C24.9852 2.62979 24.5408 1.90467 23.818 1.18195C23.0953 0.459231 22.3704 0.0146477 21.5154 -0.317441C20.6884 -0.638739 19.7435 -0.858533 18.3598 -0.921674C16.9733 -0.985014 16.5305 -1 13 -1Z" fill="#B6A188"/>
<path d="M13.0002 5.32422C9.31326 5.32422 6.32446 8.31301 6.32446 12C6.32446 15.6869 9.31326 18.6757 13.0002 18.6757C16.6871 18.6757 19.6759 15.6869 19.6759 12C19.6759 8.31301 16.6871 5.32422 13.0002 5.32422ZM13.0002 16.3333C10.607 16.3333 8.66687 14.3931 8.66687 12C8.66687 9.6068 10.607 7.66662 13.0002 7.66662C15.3934 7.66662 17.3335 9.6068 17.3335 12C17.3335 14.3931 15.3934 16.3333 13.0002 16.3333Z" fill="#B6A188"/>
<path d="M19.9396 6.62036C20.8011 6.62036 21.4995 5.92195 21.4995 5.06042C21.4995 4.1989 20.8011 3.50049 19.9396 3.50049C19.078 3.50049 18.3796 4.1989 18.3796 5.06042C18.3796 5.92195 19.078 6.62036 19.9396 6.62036Z" fill="#B6A188"/>
</g>
<defs>
<clipPath id="clip0">
<rect width="26" height="25.675" fill="white" transform="translate(0 0.0498047)"/>
</clipPath>
</defs>
</svg>
