<svg width="19" height="14" viewBox="0 0 19 14" fill="none" xmlns="http://www.w3.org/2000/svg">
<path d="M12.5945 6.62858L18.9999 10.678V2.4082L12.5945 6.62858Z" fill="#B6A188"/>
<path d="M0 2.4082V10.678L6.40537 6.62858L0 2.4082Z" fill="#B6A188"/>
<path d="M17.8125 0H1.18752C0.594957 0 0.124707 0.44175 0.0356445 1.01056L9.50002 7.24612L18.9644 1.01056C18.8753 0.44175 18.4051 0 17.8125 0Z" fill="#B6A188"/>
<path d="M11.507 7.34591L9.82665 8.45266C9.7269 8.51798 9.61409 8.55004 9.50008 8.55004C9.38608 8.55004 9.27327 8.51798 9.17352 8.45266L7.49321 7.34473L0.0380859 12.0603C0.129523 12.6244 0.597398 13.0625 1.18759 13.0625H17.8126C18.4028 13.0625 18.8706 12.6244 18.9621 12.0603L11.507 7.34591Z" fill="#B6A188"/>
</svg>
