<svg width="24" height="25" viewBox="0 0 24 25" fill="none" xmlns="http://www.w3.org/2000/svg">
<path d="M19.4419 15.4994L19.4389 15.4963C19.0617 15.1134 18.4511 15.1149 18.0755 15.4994L15.6538 18.006C14.9483 18.7201 13.8427 18.8178 13.0272 18.2381C11.6157 17.2323 10.2948 16.1009 9.07962 14.8572C7.98973 13.7504 6.98701 12.558 6.0809 11.2907C5.4842 10.4589 5.57462 9.30744 6.29342 8.58285L8.79866 6.02978L8.80167 6.02671C9.17739 5.64224 9.176 5.02006 8.79866 4.63724L4.53221 0.289329L4.5292 0.286257C4.15193 -0.0966394 3.54141 -0.095216 3.16576 0.289329L1.81446 1.66644C0.174613 3.31032 -0.413193 5.75716 0.296129 7.98712C0.914884 9.88534 1.78858 11.6869 2.89244 13.3408C3.90162 14.8778 5.05871 16.3084 6.34665 17.6113C7.7464 19.0465 9.29685 20.3203 10.9699 21.4099C12.7707 22.6153 14.7493 23.519 16.8306 24.0868C18.8964 24.5894 21.0699 23.9557 22.5622 22.4157L23.7237 21.232L23.7161 21.2552L23.7191 21.2522C24.0948 20.8675 24.0934 20.2455 23.716 19.8628L19.4419 15.4994Z" fill="#B6A188"/>
</svg>
