<svg width="19" height="19" viewBox="0 0 19 19" fill="none" xmlns="http://www.w3.org/2000/svg">
<path d="M9.49998 0C4.25329 0 0 4.25329 0 9.49998C0 14.7467 4.25329 19 9.49998 19C14.7467 19 19 14.7467 19 9.49998C18.9944 4.25563 14.7444 0.00560616 9.49998 0ZM10.1786 9.49998C10.1786 9.87476 9.87476 10.1786 9.49998 10.1786H4.07143C3.69665 10.1786 3.39284 9.87476 3.39284 9.49998C3.39284 9.1252 3.69665 8.8214 4.07143 8.8214H8.82144V4.07143C8.82144 3.69665 9.12524 3.39284 9.50002 3.39284C9.8748 3.39284 10.1786 3.69665 10.1786 4.07143V9.49998Z" fill="#B6A188"/>
</svg>
