<svg width="35" height="19" viewBox="0 0 35 19" fill="none" xmlns="http://www.w3.org/2000/svg">
<g clip-path="url(#clip0)">
<path fill-rule="evenodd" clip-rule="evenodd" d="M17.1459 18.9207H19.1181C19.1181 18.9207 19.7139 18.8545 20.0184 18.5236C20.2983 18.2197 20.2895 17.6491 20.2895 17.6491C20.2895 17.6491 20.251 14.9784 21.4792 14.5845C22.6903 14.1971 24.2452 17.166 25.8932 18.3081C27.1397 19.1718 28.0865 18.9828 28.0865 18.9828L32.4937 18.9205C32.4937 18.9205 34.7989 18.7769 33.7059 16.9479C33.6162 16.7983 33.0691 15.5947 30.4289 13.1215C27.6653 10.5331 28.0359 10.9516 31.3645 6.47422C33.3917 3.7474 34.2022 2.08295 33.9489 1.36994C33.7077 0.690664 32.2164 0.8699 32.2164 0.8699L27.2545 0.901152C27.2545 0.901152 26.8866 0.850651 26.6139 1.01519C26.3473 1.17642 26.1763 1.55248 26.1763 1.55248C26.1763 1.55248 25.3906 3.66233 24.3435 5.45696C22.134 9.24326 21.2503 9.44381 20.8892 9.20849C20.0487 8.66023 20.259 7.00737 20.259 5.83261C20.259 2.16263 20.8104 0.632713 19.185 0.236573C18.6456 0.105148 18.2484 0.0186344 16.8688 0.00414656C15.0984 -0.0138598 13.6001 0.0097347 12.7515 0.429469C12.1871 0.708256 11.7513 1.32999 12.0169 1.3658C12.3448 1.40947 13.0874 1.5678 13.4812 2.10861C13.9897 2.80693 13.9719 4.37472 13.9719 4.37472C13.9719 4.37472 14.2641 8.69438 13.2896 9.23084C12.6209 9.59883 11.7033 8.84754 9.73337 5.41205C8.72398 3.65302 7.96191 1.70792 7.96191 1.70792C7.96191 1.70792 7.81508 1.34448 7.55299 1.14972C7.23512 0.913984 6.79092 0.839268 6.79092 0.839268L2.07538 0.870314C2.07538 0.870314 1.36766 0.890183 1.10783 1.20105C0.876498 1.47735 1.08937 2.04859 1.08937 2.04859C1.08937 2.04859 4.78055 10.7649 8.96064 15.1574C12.7939 19.185 17.1459 18.9207 17.1459 18.9207Z" fill="#B6A188"/>
</g>
<defs>
<clipPath id="clip0">
<rect width="35" height="19" fill="white"/>
</clipPath>
</defs>
</svg>
